<svg width="1000" height="220" xmlns="http://www.w3.org/2000/svg"><path fill="#d6f0fe" d="M1000 0v220H0V0Z" style="stroke-width:.610731"/><ellipse fill="#d6f0fe" cx="-117.048" cy="-672.731" transform="rotate(132.8)" rx="7.1" ry="6.84"/><g transform="translate(108.916 -265.85)" style="display:inline"><g style="display:inline"><path style="fill:#fff;stroke:none;stroke-width:1.27925" d="M325.446 51.65h327v121.5h-327z" transform="translate(-108.916 265.85)"/></g><path fill="#3481d6" d="M479.31 451.5c-4.633.02-7.153.04-7.56.06-22.813 1.367-42.063 2.453-57.75 3.26-7.44.38-14.093.767-19.96 1.16-22.447 1.5-48.543 3-78.29 4.5-39.067 1.973-77.64 2.23-115.72.77-3.45-.14-6.48-2.83-7.08-6.05-.053-.3-.073-2.147-.06-5.54.033-8.26 0-14.73-.1-19.41-1.18-54.41-2.35-83.04-2.06-121.5.04-4.8 1.06-6.13 5.97-6.55 1.52-.133 2.757-.19 3.71-.17 33.027.693 60.223.543 81.59-.45 70.42-3.28 140.43-7.31 211.26-11.29 10.16-.573 24.42-.827 42.78-.76 4.62.02 6.65 1.18 9.97 4.04 19.407 16.767 33.353 28.983 41.84 36.65 2.75 2.48 2.55 5.28 2.58 9.56.213 29.007.563 52.193 1.05 69.56.047 1.647-.4 2.913-1.34 3.8-14.293 13.493-26.857 25.683-37.69 36.57-2.89 2.9-5.14 2.51-9.74 2.4a2313.09 2313.09 0 0 0-63.4-.61zm-100.85-88.87c.027 6.993-.027 15.543-.16 25.65-.04 3.167.267 5.947.92 8.34 2.04 7.46 10.92 10.64 18.11 10.01 2.03-.17 6.1-.57 8.71-1.3.36-.1.53-.337.51-.71l-.53-9.79c-.028-.45-.408-.79-.84-.75-3.06.267-5.777.333-8.15.2-3.587-.2-5.48-2.02-5.68-5.46-.033-.58-.027-9.247.02-26a.82.82 0 0 1 .82-.82h12.72c.36 0 .54-.18.54-.54v-8.98a.29.29 0 0 0-.29-.29h-12.91a.715.715 0 0 1-.72-.71v-13.3a.535.535 0 0 0-.53-.54h-12a.65.65 0 0 0-.65.65v12.74c0 .237-.188.43-.42.43h-7.51c-.313 0-.47.157-.47.47v9.19c0 .436.354.79.79.79h7a.72.72 0 0 1 .72.72zm71.14 38.28v3.49a1.8 1.8 0 0 0 1.8 1.8h10.37c.144 0 .26-.12.26-.27-.053-9.053-.047-18.123.02-27.21.047-7.447-.44-12.52-1.46-15.22-2.093-5.507-6.15-9.267-12.17-11.28-3.807-1.273-6.86-1.943-9.16-2.01-8.12-.24-15.663 1.427-22.63 5-.993.513-1.21 1.253-.65 2.22l4.29 7.44a.735.735 0 0 0 1 .27c6.44-3.72 13.357-4.78 20.75-3.18 2.873.627 4.833 2.367 5.88 5.22l1.13 3.07c1.007 2.747.09 3.79-2.75 3.13-9.91-2.3-30.36-1.65-32.76 11.6-4.13 22.76 22.07 27.91 35.45 15.65a.38.38 0 0 1 .63.28zm63.41-5.16c0 2.88-.24 7.04-1.81 9.79-3.91 6.84-9.35 6.97-16.44 7.19-5.68.18-10.32-2.44-15.02-5.37a.63.63 0 0 0-.85.18l-5.49 7.84a1.02 1.02 0 0 0 .32 1.46c2.68 1.573 5.033 2.85 7.06 3.83 6.59 3.19 12.75 3.72 20.73 3.33 14.07-.68 24.12-10.99 24.04-25.27-.12-21.733-.12-37.123 0-46.17a.63.63 0 0 0-.63-.64h-12c-.353 0-.523.177-.51.53l.15 4.06c.067 1.7-.447 1.923-1.54.67-.57-.66-1.07-1.4-1.82-1.96-7.8-5.813-16.103-6.793-24.91-2.94-12.51 5.47-16.41 20.99-12.64 33.16 2.31 7.44 8.81 14.12 16.62 15.94 7.733 1.813 14.647.737 20.74-3.23 1.27-.82 1.99-1.94 2.82-2.85.78-.873 1.173-.723 1.18.45zM253.93 355.9c-.84.827-1.233.65-1.18-.53.04-.753.19-1.65.45-2.69.1-.4-.06-.6-.48-.6H241a.415.415 0 0 0-.42.41v53c0 .46.233.69.7.69h11.25a.76.76 0 0 0 .76-.75c.093-9.073.13-19.283.11-30.63-.013-6.073 2.61-10.087 7.87-12.04 3.287-1.213 6.39-.83 9.31 1.15 3.33 2.26 4.25 6.37 4.27 10.35.033 5.347.02 15.727-.04 31.14 0 .48.385.87.86.87h10.69c.613 0 .927-.31.94-.93.093-5.893.147-16.007.16-30.34.007-4.06 1.08-7.263 3.22-9.61 5.35-5.89 15.84-3.98 17.47 4.14.31 1.55.53 4.01.54 5.35.04 7.567.05 17.833.03 30.8-.006.33.265.6.6.6h11.45a.485.485 0 0 0 .49-.47c.247-12.133.303-22.953.17-32.46-.12-8.75-2.48-17.44-11.54-20.92-9.967-3.833-18.46-1.933-25.48 5.7a.26.26 0 0 1-.38 0c-4.633-5.147-10.557-7.59-17.77-7.33-4.96.18-9.07 1.88-12.33 5.1zm91.44 3.41c-.37-2.77 2.06-7.34-2.88-7.45-2.553-.06-5.693.017-9.42.23a.445.445 0 0 0-.42.45v52.99c0 .48.237.72.71.72h11.43c.233 0 .353-.12.36-.36.033-2.013.043-9.79.03-23.33 0-4.26.347-7.36 1.04-9.3 2.986-7.816 9.163-11.597 17.091-11.35.42-.027.63-.25.63-.67l.016-9.26c0-.367-.183-.54-.55-.52-7.167.3-12.957 2.76-17.277 8.06-.42.513-.673.443-.76-.21zm222.936 17.1c2.772 2.566 7.178 2.314 9.843-.563 2.664-2.877 2.577-7.29-.195-9.856-2.772-2.567-7.178-2.315-9.843.562-2.664 2.877-2.577 7.29.195 9.856z"/><ellipse fill="#3481d6" cx="504.88" cy="-366.926" transform="rotate(73.1)" rx="15.22" ry="14.83"/><path fill="#3481d6" d="M431.75 396.22c-4.03-.79-6.69-4.16-6.19-8.22 1.09-8.83 16.75-7.35 22.73-5.78a.9.91 5.8 0 1 .66.82c.29 4.81-.18 8.86-4.74 11.42q-5.55 3.12-12.46 1.76z"/></g></svg>