<svg xmlns="http://www.w3.org/2000/svg" width="118mm" height="118mm" viewBox="0 0 118 118">
    <path fill="#3481d6" d="M82.343 79.016q-1.84.007-2 .015-9.055.543-15.28.863-2.953.15-5.281.307-8.909.596-20.714 1.19-15.505.784-30.618.204c-.913-.037-1.714-.748-1.873-1.6q-.021-.12-.016-1.466.013-3.279-.026-5.136c-.313-14.396-.622-21.97-.545-32.147.01-1.27.28-1.622 1.58-1.733q.603-.052.98-.045 13.11.276 21.588-.119c18.632-.868 37.156-1.934 55.896-2.987q4.032-.228 11.319-.2c1.222.004 1.76.311 2.638 1.068q7.701 6.654 11.07 9.697c.728.656.675 1.397.683 2.53q.084 11.511.277 18.404.02.653-.354 1.005a449 449 0 0 0-9.972 9.676c-.765.767-1.36.664-2.577.635a614 614 0 0 0-16.775-.161m23.547-19.868c.733.679 1.9.612 2.604-.149s.682-1.929-.051-2.608-1.9-.612-2.605.149-.681 1.929.052 2.608" style="stroke-width:.264583"/>
</svg>
