<svg xmlns="http://www.w3.org/2000/svg" width="1000" height="220">
    <path fill="#d6f0fe" d="M1000 0v220H0V0Z" style="stroke-width:.610731"/>
    <path fill="#3481d6" d="M306.812 195.278c-3.326-.14-6.248-2.83-6.826-6.05q-.077-.45-.058-5.54.048-12.39-.096-19.41c-1.138-54.41-.297-81.04-.017-119.5.039-4.8 2.991-8.13 7.725-8.55q2.199-.2 3.577-.17c31.843.693 54.125.543 74.726-.45 67.895-3.28 135.395-7.31 203.685-11.29q14.694-.86 41.247-.76c4.454.02 6.411 1.18 9.612 4.04q28.067 25.15 40.34 36.65c2.651 2.48 2.459 5.28 2.488 9.56q.308 43.51 1.012 69.56.067 2.47-1.292 3.8-20.67 20.24-36.339 36.57c-2.786 2.9-4.955 2.51-9.39 2.4-127.111-1.572-213.543 13.787-330.394 9.14m355.072-84.84c2.672 2.566 6.92 2.314 9.49-.563 2.568-2.877 2.484-7.29-.188-9.857s-6.921-2.315-9.49.562c-2.569 2.878-2.485 7.29.188 9.857" style="stroke-width:.981909" transform="translate(8.259 .148)"/>
    <path d="m406.827 134.801 17.869-47.17c.95-2.45-.618-4.842-3.235-4.889l-4.228-.076c-1.309-.024-2.94 1.078-3.367 2.406l-10.102 29.732c-1.07 3.475-5.6 3.394-6.644-.12l-8.923-30.075c-.38-1.24-1.969-2.502-3.277-2.526l-6.846-.123c-1.409-.026-3.042 1.178-3.467 2.404l-9.903 29.838c-1.168 3.371-5.698 3.29-6.744-.122l-9.123-30.18c-.378-1.344-1.969-2.503-3.277-2.527l-4.329-.078c-2.617-.047-4.27 2.287-3.409 4.77l16.357 47.787c.38 1.24 1.971 2.4 3.18 2.422l6.945.125c1.309.023 2.94-1.078 3.366-2.407l9.969-27.883c1.168-3.371 5.598-3.291 6.644.12l8.956 28.225c.379 1.343 1.969 2.502 3.278 2.526l7.046.127c1.208.022 2.84-1.08 3.264-2.306m33.964-51.71-4.53-.082c-1.912-.035-3.553 1.58-3.588 3.533l-.856 47.477c-.035 1.952 1.546 3.625 3.458 3.66l4.53.082c1.913.034 3.553-1.581 3.588-3.534l.447-24.765c1.058-8.41 6.199-14.28 14.973-15.047 1.715-.175 3.864-2.09 3.896-3.836l.07-3.905c.04-2.26-1.443-3.727-3.565-3.354-5.348.623-9.723 3.114-12.917 7.168-.518.814-2.122.373-2.105-.551l.057-3.186c.036-1.953-1.545-3.626-3.458-3.66m56.693 43.888c-2.435.984-4.56 1.563-6.573 1.526-3.624-.065-5.706-1.85-5.604-7.502l.407-22.608c.036-1.952 1.676-3.567 3.588-3.533l8.758.158c1.913.034 3.553-1.58 3.588-3.533l.03-1.644c.035-1.953-1.546-3.626-3.458-3.66l-8.758-.159c-1.913-.034-3.494-1.707-3.458-3.66l.14-7.81c.036-1.952-1.545-3.626-3.458-3.66l-4.43-.08c-1.912-.034-3.552 1.58-3.587 3.533l-.141 7.81c-.035 1.953-1.676 3.568-3.588 3.533l-.504-.009c-1.912-.034-3.553 1.58-3.588 3.533l-.03 1.645c-.035 1.952 1.546 3.625 3.459 3.66l.503.009c1.913.034 3.494 1.708 3.459 3.66l-.447 24.766c-.202 11.201 6.659 16.054 14.712 16.199 3.724.067 7.467-.893 11.022-2.577 1.32-.593 1.952-2.123 1.474-3.571l-1.52-5.065c-.186-.825-1.083-1.355-1.996-.96m48.511 12.697 4.53.081c1.913.035 3.553-1.58 3.588-3.533l.481-32.27c.117-12.024-7.505-19.357-21.296-19.606-8.657-.156-13.923 1.496-19.922 4.678-1.728.894-2.473 3.142-1.498 4.907l1.268 2.284c.78 1.453 2.985 2.007 4.409 1.21 4.375-2.49 8.826-3.644 13.054-3.568 8.456.153 12.71 4.342 12.586 11.227l-.015.822c-.007.41-.417.815-.82.807l-15.401-.277c-12.887-.13-20.35 6.109-20.53 16.077-.175 9.66 6.942 17.086 18.518 17.295 6.443.116 11.707-1.433 15.591-4.653.716-.604 2.217-.063 2.2.862l-.003.206c-.033 1.85 1.449 3.418 3.26 3.45zm-18.463-9.174c-6.443-.116-10.311-3.372-10.222-8.305.094-5.24 3.654-7.233 11.204-7.096l12.08.217c1.309.024 2.396 1.174 2.371 2.51l-.042 2.364-.112.615c-.91 5.74-7.226 9.84-15.28 9.695m85.991-44.296-4.429-.08c-1.913-.034-3.553 1.58-3.588 3.533l-.032 1.747c-.016.925-1.534 1.309-2.226.577-3.648-4.28-8.943-6.638-15.79-6.658-14.195-.154-23.947 10.156-24.225 25.57-.284 15.723 9.187 26.585 23.683 26.846 6.644.12 11.919-2.046 15.718-6.09.617-.708 2.121-.373 2.104.552l-.063 3.494c-.17 9.454-6.923 15.397-17.09 15.214-5.436-.098-9.84-1.617-14.12-4.366-1.294-.846-3.413-.576-4.245.848l-1.662 2.848c-1.038 1.73-.471 3.795 1.221 4.854 5.679 3.392 11.986 5.459 19.133 5.588 16.81.303 27.961-9.365 28.245-25.087l.825-45.73c.035-1.952-1.546-3.626-3.459-3.66m-24.125 42.328c-9.261-.167-15.376-7.267-15.3-17.134.278-9.761 6.746-16.635 15.906-16.47 9.06.164 15.278 7.164 15.1 17.029s-6.646 16.739-15.706 16.575" aria-label="wrtag" style="font-size:113.29px;line-height:1;font-family:Trueno;-inkscape-font-specification:&quot;Trueno, @wght=497&quot;;font-variation-settings:&quot;wght&quot;497;letter-spacing:-.0153717px;word-spacing:-.0461149px;fill:#fff;stroke-width:.690122" transform="translate(8.259 .148)"/>
</svg>
