<svg width="1000" height="220" xmlns="http://www.w3.org/2000/svg">
  <path fill="#d6f0fe" d="M1000 0v220H0V0Z" style="stroke-width: 0.610731" />
  <path
    fill="#3481d6"
    d="M300.951 197.278c-3.378-.14-6.345-2.83-6.932-6.05-.052-.3-.072-2.147-.059-5.54.033-8.26 0-14.73-.098-19.41-1.155-54.41-2.3-83.04-2.017-121.5.04-4.8 1.038-6.13 5.846-6.55 1.488-.134 2.699-.19 3.632-.17 32.337.693 58.966.543 79.886-.45 68.95-3.28 137.498-7.31 206.849-11.29 9.948-.573 23.91-.827 41.887-.76 4.523.02 6.51 1.18 9.761 4.04 19.002 16.766 32.657 28.983 40.967 36.65 2.692 2.48 2.496 5.28 2.526 9.56.209 29.006.552 52.193 1.028 69.56.046 1.646-.392 2.913-1.312 3.8-13.995 13.493-26.296 25.683-36.903 36.57-2.83 2.9-5.033 2.51-9.537 2.4-129.085-1.572-216.859 13.787-335.524 9.14zm360.586-84.84c2.714 2.566 7.028 2.314 9.637-.563 2.609-2.877 2.523-7.29-.19-9.857-2.715-2.566-7.03-2.315-9.638.562-2.609 2.878-2.523 7.29.19 9.857z"
    style="stroke-width: 0.989504"
  />
  <path
    d="m398.816 136.967 19.9-52.532c1.059-2.729-.687-5.393-3.602-5.446l-4.709-.085c-1.457-.026-3.274 1.2-3.749 2.68l-11.25 33.112c-1.192 3.87-6.237 3.78-7.4-.133l-9.938-33.494c-.423-1.382-2.192-2.788-3.65-2.814l-7.623-.137c-1.57-.029-3.388 1.312-3.861 2.678l-11.03 33.23c-1.3 3.754-6.345 3.663-7.51-.136l-10.16-33.612c-.422-1.496-2.193-2.787-3.65-2.813l-4.821-.087c-2.915-.053-4.756 2.547-3.797 5.312l18.217 53.22c.424 1.381 2.195 2.673 3.54 2.697l7.736.14c1.457.026 3.274-1.201 3.749-2.68l11.102-31.054c1.301-3.755 6.234-3.666 7.399.133l9.975 31.434c.421 1.496 2.192 2.787 3.65 2.813l7.847.142c1.346.024 3.162-1.202 3.635-2.568zm37.826-57.59-5.045-.09c-2.13-.039-3.957 1.76-3.996 3.934l-.954 52.874c-.039 2.175 1.722 4.038 3.852 4.077l5.045.09c2.13.04 3.957-1.76 3.996-3.934l.497-27.582c1.178-9.366 6.904-15.903 16.676-16.757 1.91-.194 4.303-2.326 4.338-4.272l.079-4.349c.045-2.518-1.608-4.15-3.97-3.735-5.956.694-10.829 3.468-14.387 7.983-.577.906-2.362.416-2.344-.614l.064-3.548c.04-2.175-1.721-4.038-3.851-4.077zm63.138 48.879c-2.711 1.096-5.078 1.74-7.32 1.7-4.036-.073-6.355-2.061-6.242-8.356l.454-25.178c.04-2.175 1.866-3.973 3.997-3.935l9.753.176c2.13.038 3.957-1.76 3.996-3.935l.033-1.831c.04-2.174-1.721-4.038-3.852-4.076l-9.753-.176c-2.13-.039-3.89-1.902-3.852-4.077l.157-8.698c.04-2.174-1.721-4.038-3.851-4.076l-4.933-.089c-2.13-.038-3.957 1.76-3.996 3.935l-.157 8.698c-.04 2.174-1.866 3.973-3.996 3.935l-.56-.01c-2.13-.039-3.957 1.76-3.997 3.934l-.033 1.832c-.039 2.174 1.722 4.037 3.852 4.076l.56.01c2.13.038 3.891 1.902 3.852 4.076l-.497 27.582c-.225 12.475 7.415 17.879 16.384 18.04 4.148.075 8.317-.994 12.275-2.87 1.47-.66 2.174-2.364 1.642-3.977l-1.692-5.64c-.208-.92-1.207-1.51-2.224-1.07zm54.027 14.14 5.044.09c2.13.04 3.957-1.76 3.996-3.934l.536-35.938c.13-13.392-8.358-21.56-23.717-21.836-9.641-.174-15.506 1.666-22.187 5.21-1.924.995-2.754 3.498-1.668 5.464l1.412 2.544c.868 1.619 3.324 2.235 4.91 1.348 4.872-2.774 9.83-4.058 14.538-3.973 9.418.17 14.156 4.834 14.017 12.502l-.016.916c-.008.457-.465.907-.914.899l-17.152-.31c-14.352-.144-22.664 6.804-22.864 17.906-.194 10.758 7.73 19.029 20.623 19.261 7.175.13 13.038-1.596 17.364-5.182.797-.672 2.469-.07 2.45.96l-.004.23c-.037 2.06 1.614 3.806 3.632 3.843zm-20.563-10.217c-7.175-.13-11.483-3.756-11.384-9.25.105-5.836 4.07-8.054 12.478-7.903l13.453.243c1.458.026 2.668 1.308 2.641 2.795l-.047 2.633-.125.684c-1.012 6.393-8.047 10.96-17.016 10.798zm95.768-49.332-4.933-.089c-2.13-.038-3.957 1.76-3.996 3.935l-.035 1.945c-.019 1.03-1.708 1.458-2.479.643-4.063-4.768-9.96-7.393-17.585-7.416-15.81-.17-26.67 11.311-26.98 28.478-.316 17.51 10.232 29.607 26.376 29.898 7.399.134 13.274-2.28 17.505-6.782.687-.79 2.362-.416 2.343.614l-.07 3.892c-.19 10.529-7.71 17.148-19.034 16.943-6.054-.109-10.957-1.8-15.724-4.863-1.441-.941-3.802-.64-4.728.946l-1.851 3.172c-1.156 1.925-.525 4.226 1.36 5.405 6.324 3.777 13.348 6.08 21.308 6.223 18.722.338 31.14-10.429 31.456-27.94l.918-50.928c.04-2.174-1.721-4.038-3.851-4.076zm-26.868 47.14c-10.314-.186-17.125-8.093-17.039-19.082.309-10.87 7.512-18.525 17.714-18.341 10.09.182 17.014 7.977 16.816 18.964-.198 10.986-7.401 18.641-17.491 18.46z"
    style="
      font-size: 113.29px;
      line-height: 1;
      font-family: Trueno;
      -inkscape-font-specification: &quot;Trueno, @wght=497&quot;;
      font-variation-settings: &quot;wght&quot; 497;
      letter-spacing: -0.0153717px;
      word-spacing: -0.0461149px;
      fill: #fff;
      stroke-width: 0.768582;
    "
    aria-label="wrtag"
  />
</svg>
