<svg xmlns="http://www.w3.org/2000/svg" viewBox="0 0 1000 220"><path fill="#d6f0fe" d="M1000 0v220H0V0Z" style="stroke-width:.610731"/><path fill="#3481d6" d="M580.426 187.528c-4.633.02-7.153.04-7.56.06-22.813 1.366-42.063 2.453-57.75 3.26-7.44.38-14.093.766-19.96 1.16-22.446 1.5-48.543 3-78.29 4.5-39.066 1.973-77.64 2.23-115.72.77-3.45-.14-6.48-2.83-7.08-6.05-.053-.3-.073-2.147-.06-5.54.034-8.26 0-14.73-.1-19.41-1.18-54.41-2.35-83.04-2.06-121.5.04-4.8 1.06-6.13 5.97-6.55 1.52-.134 2.757-.19 3.71-.17 33.027.693 60.224.543 81.59-.45 70.42-3.28 140.43-7.31 211.26-11.29 10.16-.573 24.42-.827 42.78-.76 4.62.02 6.65 1.18 9.97 4.04 19.407 16.766 33.354 28.983 41.84 36.65 2.75 2.48 2.55 5.28 2.58 9.56.214 29.006.564 52.193 1.05 69.56.047 1.646-.4 2.913-1.34 3.8-14.293 13.493-26.856 25.683-37.69 36.57-2.89 2.9-5.14 2.51-9.74 2.4-21.166-.494-42.3-.697-63.4-.61zm88.996-75.09c2.772 2.566 7.179 2.314 9.843-.563 2.664-2.877 2.577-7.29-.195-9.857-2.772-2.566-7.178-2.315-9.842.562-2.665 2.878-2.578 7.29.194 9.857z"/><path d="m804.208 671 19.146-52.34c1.02-2.719-.793-5.324-3.739-5.324h-4.758c-1.473 0-3.286 1.246-3.739 2.719l-10.762 32.967c-1.133 3.852-6.231 3.852-7.477 0l-10.65-32.967c-.453-1.36-2.265-2.72-3.738-2.72h-7.704c-1.586 0-3.399 1.36-3.852 2.72l-10.536 33.08c-1.246 3.739-6.344 3.739-7.59 0l-10.876-33.08c-.453-1.473-2.266-2.72-3.739-2.72h-4.871c-2.946 0-4.758 2.606-3.739 5.325L744.957 671c.453 1.36 2.266 2.606 3.625 2.606h7.817c1.473 0 3.286-1.246 3.739-2.719l10.649-30.928c1.246-3.739 6.231-3.739 7.477 0l10.65 30.928c.453 1.473 2.265 2.719 3.738 2.719h7.93c1.36 0 3.172-1.246 3.626-2.606zm37.162-57.664h-5.098c-2.153 0-3.965 1.812-3.965 3.965v52.34c0 2.152 1.812 3.965 3.965 3.965h5.098c2.152 0 3.965-1.813 3.965-3.965v-27.303c1.02-9.29 6.684-15.86 16.54-16.88 1.926-.227 4.305-2.38 4.305-4.305v-4.305c0-2.493-1.7-4.079-4.078-3.626-6.005.793-10.876 3.626-14.388 8.157-.566.907-2.38.453-2.38-.566V617.3c0-2.153-1.812-3.965-3.964-3.965zm64.673 47.242c-2.72 1.133-5.098 1.812-7.364 1.812-4.078 0-6.457-1.926-6.457-8.157V629.31c0-2.153 1.812-3.966 3.965-3.966h9.856c2.152 0 3.965-1.812 3.965-3.965v-1.812c0-2.153-1.813-3.965-3.965-3.965h-9.856c-2.153 0-3.965-1.813-3.965-3.966v-8.61c0-2.152-1.813-3.965-3.966-3.965h-4.984c-2.153 0-3.966 1.813-3.966 3.965v8.61c0 2.153-1.812 3.966-3.965 3.966h-.566c-2.153 0-3.965 1.812-3.965 3.965v1.812c0 2.153 1.812 3.965 3.965 3.965h.566c2.153 0 3.965 1.813 3.965 3.966v27.302c0 12.35 7.817 17.56 16.88 17.56 4.192 0 8.384-1.132 12.35-3.058 1.472-.68 2.152-2.38 1.585-3.966l-1.812-5.55c-.227-.907-1.247-1.474-2.266-1.02zm54.835 13.028h5.098c2.153 0 3.965-1.813 3.965-3.965l-.113-35.573c-.113-13.255-8.836-21.185-24.357-21.185-9.743 0-15.634 1.925-22.318 5.55-1.926 1.02-2.72 3.513-1.586 5.439l1.472 2.492c.907 1.586 3.4 2.153 4.985 1.246 4.872-2.832 9.856-4.191 14.615-4.191 9.516 0 14.387 4.531 14.387 12.122v.906c0 .453-.453.906-.906.906h-17.333c-14.501.113-22.772 7.137-22.772 18.127 0 10.649 8.157 18.692 21.186 18.692 7.25 0 13.141-1.812 17.446-5.437.793-.68 2.493-.114 2.493.906v.226c0 2.04 1.7 3.739 3.738 3.739zm-20.958-9.743c-7.25 0-11.67-3.512-11.67-8.95 0-5.778 3.966-8.043 12.463-8.043h13.594c1.473 0 2.72 1.246 2.72 2.719v2.605l-.114.68c-.906 6.344-7.93 10.99-16.993 10.99zm95.846-50.527h-4.985c-2.152 0-3.965 1.812-3.965 3.965v1.926c0 1.02-1.699 1.473-2.492.68-4.192-4.645-10.196-7.138-17.9-7.024-15.974.113-26.736 11.668-26.736 28.662 0 17.333 10.875 29.115 27.19 29.115 7.476 0 13.367-2.492 17.56-7.024.679-.793 2.378-.453 2.378.567v3.852c0 10.422-7.477 17.107-18.92 17.107-6.117 0-11.102-1.586-15.973-4.532-1.473-.906-3.852-.566-4.758 1.02l-1.813 3.172c-1.133 1.926-.453 4.191 1.473 5.324 6.457 3.626 13.595 5.778 21.638 5.778 18.92 0 31.268-10.876 31.268-28.21v-50.413c0-2.153-1.812-3.965-3.965-3.965zm-26.283 47.128c-10.423 0-17.447-7.703-17.56-18.58.113-10.762 7.25-18.465 17.56-18.465 10.196 0 17.333 7.59 17.333 18.466 0 10.876-7.137 18.58-17.333 18.58z" style="font-size:113.29px;line-height:1;font-family:Trueno;-inkscape-font-specification:'Trueno, @wght=497';font-variation-settings:'wght' 497;letter-spacing:-.0153717px;word-spacing:-.0461149px;fill:#fff;stroke-width:.768582" aria-label="wrtag" transform="matrix(.98965 -.01282 .01308 1.01028 -401.095 -523.07)"/></svg>
