<svg width="118mm" height="118mm" viewBox="0 0 118 118" xmlns="http://www.w3.org/2000/svg"><path fill="#3481d6" d="M82.343 79.016c-1.226.005-1.893.01-2 .015-6.036.362-11.13.65-15.28.863-1.968.1-3.729.203-5.281.307-5.939.397-12.844.794-20.714 1.19-10.337.523-20.542.59-30.618.204-.913-.037-1.714-.748-1.873-1.6-.014-.08-.02-.568-.016-1.466.009-2.186 0-3.898-.026-5.136-.313-14.396-.622-21.97-.545-32.147.01-1.27.28-1.622 1.58-1.733.401-.035.729-.05.98-.045 8.74.184 15.935.144 21.588-.119 18.632-.868 37.156-1.934 55.896-2.987 2.688-.152 6.461-.219 11.319-.2 1.222.004 1.76.311 2.638 1.068 5.134 4.436 8.824 7.668 11.07 9.697.728.656.675 1.397.683 2.53.056 7.674.149 13.809.277 18.404.013.435-.105.77-.354 1.005a449.366 449.366 0 0 0-9.972 9.676c-.765.767-1.36.664-2.577.635a613.84 613.84 0 0 0-16.775-.161zm23.547-19.868c.733.679 1.9.612 2.604-.149.705-.761.682-1.929-.051-2.608-.734-.679-1.9-.612-2.605.149-.705.761-.681 1.929.052 2.608z" style="stroke-width:.264583"/></svg>